<svg xmlns="http://www.w3.org/2000/svg" viewBox="0 0 195.9 140.9">
    <style>
    path {
      fill: black;
    }
    @media (prefers-color-scheme: dark) {
      path {
        fill: white;
      }
    }
  </style>

  <path d="M103.4 3.6L100 0l-.3.4-1 1L95 5.2a138.2 138.2 0 00-10.2 13A81.7 81.7 0 0075.4 36c-.5 1.3-1 2.6-1.3 4 .9-8.7 3.4-20 9-34.6l-9.3-3.7c-8.8 23-10.6 39-10 49.8a72.2 72.2 0 01-5.6-15.6A120 120 0 0155.4 20l-.4-5-.1-1.4v-.3h-5l-5 .2v2.1l.6 5.5a130.2 130.2 0 003 17.3A79 79 0 0056 58.2a44.4 44.4 0 006 8.2L59.9 65a91 91 0 01-15.6-14.5 153.4 153.4 0 01-11-14.4 182.6 182.6 0 01-4-6l-.1-.3v-.1L24.8 32l-4.3 2.6.3.5.9 1.4 3.3 5a163.1 163.1 0 0011.8 15.5 103 103 0 0016.4 15.4 106.5 106.5 0 01-12-6.9 183 183 0 01-18.5-14l-5.6-5-1.5-1.4-.3-.4h-.1l-3.5 3.6L8.2 52h.1l.4.5 1.6 1.5 6 5.2a193.7 193.7 0 0019.4 14.9 109.1 109.1 0 0016.9 9.2A123 123 0 0137.8 79a215.2 215.2 0 01-23-9.6 316 316 0 01-7.3-3.7l-2-1-.5-.3-2.6 4.3L0 73.2l.1.1.6.3 2.1 1.1 7.5 3.8a228.1 228.1 0 0024.2 10.1C38 90 41.7 91 45.5 92a173.3 173.3 0 01-23-5l-8-2.5-2.1-.8-.6-.2h-.1l-1.8 4.7-1.7 4.7h.1l.7.3 2.3.8c2 .7 5 1.7 8.5 2.7a179.2 179.2 0 0026.8 5.7 86.6 86.6 0 0026.7-.3 88.5 88.5 0 01-9.1 2.3 154 154 0 01-18.9 2.3l-6.2.3h-2.3v10H39.4l6.6-.3a164.5 164.5 0 0020-2.5 71 71 0 0024-9 72.3 72.3 0 01-31.2 16.2l2.8 9.6c24.5-7.2 36.5-17.2 41.9-27-2.9 6.8-8.7 15.6-20 26.3l6.8 7.3c18.3-17.2 24.7-31.3 25.6-42.1 1 8.7 0 22.2-6.9 42.2l9.5 3.3c8.7-25.8 8.8-42.5 6.2-53.2a54.6 54.6 0 019.8 20.5 108.8 108.8 0 013 14.9l.5 4.7V129.5l5-.2 5-.3v-.1-.4-1.4l-.6-5.2a118 118 0 00-3.2-16.3 57.3 57.3 0 00-16.3-28.8l.6.2c9 2.6 23 11.2 39.1 37.5l8.5-5.3c-17-27.5-32.6-38.4-44.8-41.9a37 37 0 00-4.6-1l.1 2.2a28.6 28.6 0 11-32-28.6l3.4-.2A28.6 28.6 0 01126.7 66h1.3c11.7 1 30 7.5 54.2 30.2l6.9-7.3c-20.3-19-37.3-27.8-50.8-31.2 12.1 1.8 29.4 6.7 53.7 17.3l4-9.2c-36.7-16.1-59-19.8-72.4-19 10.9-1.8 28.9-1.4 58 5.5l2.4-9.8c-39-9.2-60.4-7.6-72.3-3a33.9 33.9 0 00-3.8 1.8c6.3-4.2 19.4-9 46.3-9.8l-.3-10c-24.9.7-39.8 4.8-48.7 9.7 1.4-1.1 3-2.1 4.7-3.1a148.4 148.4 0 0115.1-8c2-1 3.8-1.7 5-2.2l1.4-.6.3-.1h.1l-1.7-4.7-1.8-4.7h-.1l-.4.1-1.6.7a158 158 0 00-5.3 2.3 159.5 159.5 0 00-16.1 8.5A80.6 80.6 0 0088 32.2l-.1.2a86 86 0 015-8.3 129.7 129.7 0 019.4-12.1l3.3-3.6.9-.9.2-.2z" />
</svg>