{
  "accessors": [
    {
      "bufferView": 2,
      "componentType": 5126,
      "count": 31283,
      "max": [
        1.4087820053100586,
        6.8606529235839844,
        -11.073989868164062
      ],
      "min": [
        -5.4832248687744141,
        -0.033892150968313217,
        -12.554100036621094
      ],
      "type": "VEC3"
    },
    {
      "bufferView": 2,
      "byteOffset": 375396,
      "componentType": 5126,
      "count": 31283,
      "max": [
        0.99998998641967773,
        0.99996829032897949,
        0.99999988079071045
      ],
      "min": [
        -0.99999517202377319,
        -0.99997889995574951,
        -0.9999995231628418
      ],
      "type": "VEC3"
    },
    {
      "bufferView": 3,
      "componentType": 5126,
      "count": 31283,
      "max": [
        0.99983388185501099,
        0.9999995231628418,
        0.99999707937240601,
        1
      ],
      "min": [
        -0.99971288442611694,
        -0.99999839067459106,
        -0.99990898370742798,
        -1
      ],
      "type": "VEC4"
    },
    {
      "bufferView": 1,
      "componentType": 5126,
      "count": 31283,
      "max": [
        0.99496132135391235,
        0.98922371864318848
      ],
      "min": [
        0.0070727458223700523,
        0.0037134280428290367
      ],
      "type": "VEC2"
    },
    {
      "bufferView": 0,
      "componentType": 5125,
      "count": 174960,
      "max": [
        31282
      ],
      "min": [
        0
      ],
      "type": "SCALAR"
    }
  ],
  "asset": {
    "extras": {
      "author": "GSXNet (https://sketchfab.com/gsxn)",
      "license": "CC-BY-NC-4.0 (http://creativecommons.org/licenses/by-nc/4.0/)",
      "source": "https://sketchfab.com/models/711109ca1dd64b0ebd1637a3287f873a",
      "title": "Stonehenge Replica - Historical Series Britannia"
    },
    "generator": "Sketchfab-3.29.4-rc4",
    "version": "2.0"
  },
  "bufferViews": [
    {
      "buffer": 0,
      "byteLength": 699840,
      "byteOffset": 0,
      "name": "floatBufferViews",
      "target": 34963
    },
    {
      "buffer": 0,
      "byteLength": 250264,
      "byteOffset": 699840,
      "byteStride": 8,
      "name": "floatBufferViews",
      "target": 34962
    },
    {
      "buffer": 0,
      "byteLength": 750792,
      "byteOffset": 950104,
      "byteStride": 12,
      "name": "floatBufferViews",
      "target": 34962
    },
    {
      "buffer": 0,
      "byteLength": 500528,
      "byteOffset": 1700896,
      "byteStride": 16,
      "name": "floatBufferViews",
      "target": 34962
    }
  ],
  "buffers": [
    {
      "byteLength": 2201424,
      "uri": "scene.bin"
    }
  ],
  "extensionsRequired": [
    "KHR_materials_pbrSpecularGlossiness"
  ],
  "extensionsUsed": [
    "KHR_materials_pbrSpecularGlossiness"
  ],
  "images": [
    {
      "uri": "textures/Stone_diffuse.jpg"
    },
    {
      "uri": "textures/Stone_specularGlossiness.png"
    }
  ],
  "materials": [
    {
      "doubleSided": true,
      "extensions": {
        "KHR_materials_pbrSpecularGlossiness": {
          "diffuseFactor": [
            1,
            1,
            1,
            1
          ],
          "diffuseTexture": {
            "index": 0,
            "texCoord": 0
          },
          "glossinessFactor": 0.70293445119999998,
          "specularFactor": [
            0,
            0,
            0
          ],
          "specularGlossinessTexture": {
            "index": 1,
            "texCoord": 0
          }
        }
      },
      "name": "Stone"
    }
  ],
  "meshes": [
    {
      "name": "Stone-material",
      "primitives": [
        {
          "attributes": {
            "NORMAL": 1,
            "POSITION": 0,
            "TANGENT": 2,
            "TEXCOORD_0": 3
          },
          "indices": 4,
          "material": 0,
          "mode": 4
        }
      ]
    }
  ],
  "nodes": [
    {
      "children": [
        1
      ],
      "name": "RootNode (gltf orientation matrix)",
      "rotation": [
        -0.70710678118654746,
        -0,
        -0,
        0.70710678118654757
      ]
    },
    {
      "children": [
        2
      ],
      "name": "RootNode (model correction matrix)"
    },
    {
      "children": [
        3
      ],
      "name": "Collada visual scene group"
    },
    {
      "children": [
        4
      ],
      "matrix": [
        0.9994246793998538,
        -0.00054524819315236272,
        0.033911840276032806,
        0,
        -0.00054452931831090701,
        0.99948393338232999,
        0.032118069655689287,
        0,
        -0.033911851826769902,
        -0.032118057459847617,
        0.99890861278231313,
        0,
        1.6133240461349487,
        -3.8151190280914307,
        12.470399856567383,
        1
      ],
      "name": "Model"
    },
    {
      "mesh": 0,
      "name": "Stone-material"
    }
  ],
  "samplers": [
    {
      "magFilter": 9729,
      "minFilter": 9987,
      "wrapS": 10497,
      "wrapT": 10497
    }
  ],
  "scene": 0,
  "scenes": [
    {
      "name": "OSG_Scene",
      "nodes": [
        0
      ]
    }
  ],
  "textures": [
    {
      "sampler": 0,
      "source": 0
    },
    {
      "sampler": 0,
      "source": 1
    }
  ]
}

