<svg width="3693" height="2643" viewBox="0 0 3693 2643" fill="none" xmlns="http://www.w3.org/2000/svg">
<path d="M1949.38 67.405C1883.39 -0.0341492 1883.38 -0.0178411 1883.36 0.000608498L1883.31 0.048315L1883.17 0.182422L1882.75 0.604505L1881.28 2.05701C1880.04 3.29289 1878.28 5.06069 1876.02 7.33803C1871.52 11.892 1865.06 18.488 1856.96 26.9467C1840.77 43.8556 1817.96 68.2574 1791 98.7147C1737.22 159.468 1666.24 245.1 1598.21 344.012C1530.48 442.478 1463.73 556.909 1420.55 675.125C1411.72 699.298 1403.74 723.997 1396.92 749.065C1413.29 587.693 1460.44 375.043 1565.98 101.443L1390.11 33.3673C1224.68 462.252 1190.43 763.191 1203.83 965.68C1156.92 876.195 1122.18 773.978 1096.78 673.36C1068.48 561.3 1052.61 454.569 1043.83 375.59C1039.46 336.217 1036.88 304.026 1035.4 281.874C1034.66 270.804 1034.2 262.26 1033.93 256.601C1033.79 253.771 1033.7 251.665 1033.65 250.325L1033.59 248.898L1033.58 248.628C1033.58 248.628 1033.58 248.658 939.362 251.69C845.142 254.722 845.143 254.748 845.144 254.777L845.146 254.851L845.153 255.058L845.175 255.7L845.259 257.885C845.333 259.737 845.446 262.371 845.609 265.742C845.935 272.483 846.462 282.179 847.281 294.464C848.919 319.023 851.73 354.006 856.45 396.484C865.863 481.207 882.995 596.889 913.993 719.669C944.865 841.953 990.323 974.663 1057.87 1091.58C1089.54 1146.39 1126.82 1199.03 1170.75 1245.74C1156.78 1236.88 1142.81 1227.53 1128.86 1217.71C1022.33 1142.75 922.213 1044.77 835.247 945.493C748.559 846.533 676.789 748.421 626.632 674.889C601.607 638.201 582.094 607.828 568.93 586.783C562.351 576.265 557.366 568.091 554.079 562.638C552.436 559.912 551.218 557.868 550.439 556.552L549.601 555.132L549.431 554.843L549.415 554.815C549.415 554.815 549.43 554.841 468.018 602.45C386.605 650.059 386.617 650.08 386.631 650.104L386.668 650.168L386.774 650.349L387.115 650.93L388.304 652.944C389.32 654.66 390.784 657.116 392.681 660.263C396.474 666.557 402.005 675.621 409.168 687.072C423.488 709.965 444.366 742.451 470.966 781.447C524.058 859.281 600.475 963.835 693.537 1070.07C782.118 1171.19 887.478 1275.79 1003.85 1360.36C927.88 1323.86 851.104 1279.22 776.677 1230.72C640.806 1142.17 517.554 1043.93 427.929 967.437C383.232 929.289 347.17 896.779 322.392 873.913C310.008 862.485 300.458 853.479 294.073 847.399C290.881 844.36 288.482 842.053 286.917 840.541L285.201 838.878L284.822 838.509L284.754 838.442C284.754 838.442 284.768 838.456 218.878 905.993C152.989 973.531 153.006 973.548 153.027 973.568L153.085 973.625L153.264 973.8L153.868 974.387L156.045 976.497C157.922 978.311 160.645 980.928 164.171 984.286C171.223 991.002 181.495 1000.69 194.651 1012.83C220.953 1037.1 258.848 1071.25 305.656 1111.2C399.038 1190.91 528.982 1294.61 673.864 1389.03C772.964 1453.62 881.362 1515.39 991.543 1561.93C900.631 1543.19 805.741 1515.76 712.072 1483.63C547.503 1427.19 392.214 1358.22 277.642 1303.08C220.489 1275.57 173.772 1251.65 141.463 1234.67C125.314 1226.18 112.783 1219.44 104.365 1214.86C100.156 1212.57 96.9776 1210.83 94.891 1209.67L92.5885 1208.4L92.0664 1208.11L91.9653 1208.05L91.955 1208.05C91.955 1208.05 91.9718 1208.06 45.9645 1290.48C-0.0427861 1372.91 -0.0230999 1372.92 0.00110296 1372.93L0.0722185 1372.97L0.295769 1373.1L1.06562 1373.52L3.876 1375.08C6.30646 1376.42 9.841 1378.37 14.417 1380.85C23.568 1385.83 36.8902 1393 53.8821 1401.92C87.8538 1419.78 136.563 1444.71 195.991 1473.32C314.584 1530.4 477.082 1602.67 651.005 1662.32C717.764 1685.22 787.042 1706.55 856.814 1724.47C695.628 1701.37 542.209 1663.42 425.441 1629.83C361.997 1611.57 309.824 1594.74 273.67 1582.53C255.602 1576.43 241.56 1571.49 232.141 1568.11C227.431 1566.42 223.88 1565.13 221.56 1564.27L219.014 1563.33L218.452 1563.12L218.351 1563.09C218.351 1563.09 218.373 1563.09 185.211 1651.49C152.049 1739.89 152.075 1739.9 152.106 1739.92L152.194 1739.95L152.461 1740.05L153.362 1740.38L156.604 1741.58C159.395 1742.61 163.434 1744.08 168.648 1745.95C179.074 1749.68 194.202 1755 213.431 1761.5C251.871 1774.48 306.803 1792.2 373.399 1811.36C506.2 1849.56 687.198 1894.04 877.206 1917.75C1042.58 1938.39 1220.67 1944.1 1381.69 1912.7C1327.56 1929.42 1269.32 1943.45 1209.52 1955.08C1080.74 1980.13 951.566 1992.81 853.956 1999.17C805.32 2002.35 764.908 2003.93 736.792 2004.71C722.742 2005.11 711.785 2005.3 704.431 2005.4C700.755 2005.45 697.982 2005.47 696.175 2005.48L694.198 2005.49L693.769 2005.49H693.697C693.697 2005.49 693.721 2005.49 693.721 2099.93C693.721 2194.36 693.743 2194.36 693.769 2194.36H693.842L694.06 2194.36L694.785 2194.36L697.366 2194.35C699.582 2194.33 702.779 2194.31 706.892 2194.25C715.116 2194.15 727.011 2193.93 742.06 2193.51C772.14 2192.67 814.907 2190.99 866.205 2187.65C968.462 2180.98 1106.17 2167.58 1245.45 2140.49C1383.31 2113.68 1529.74 2072.15 1645.26 2005.91C1663.04 1995.71 1680.52 1984.65 1697.39 1972.69C1596.04 2073.98 1418.36 2184.13 1108.01 2275.64L1161.25 2456.83C1622.69 2320.76 1850.15 2132.79 1951.16 1948.36C1897.25 2077.87 1787.04 2242.87 1573.93 2442.41L1702.67 2580.39C2047.58 2257.46 2167.19 1992.71 2184.11 1790.25C2202.16 1953.78 2183.22 2205.89 2055.41 2582.16L2233.9 2643C2398.1 2159.62 2399.64 1846.13 2349.81 1646.21C2435.24 1746.19 2495.06 1885.89 2535.38 2030.61C2564.62 2135.61 2581.47 2235.54 2590.96 2309.46C2595.7 2346.31 2598.57 2376.41 2600.25 2397.08C2601.09 2407.41 2601.63 2415.37 2601.95 2420.63C2602.04 2422.06 2602.12 2423.29 2602.17 2424.32L2602.29 2426.43L2602.36 2427.72L2602.37 2427.94C2602.37 2427.94 2602.36 2427.9 2696.54 2423.71C2790.72 2419.51 2790.72 2419.49 2790.71 2419.46L2790.71 2419.38L2790.7 2419.18L2790.67 2418.55L2790.56 2416.45C2790.47 2414.68 2790.33 2412.17 2790.13 2408.97C2789.74 2402.57 2789.11 2393.39 2788.17 2381.76C2786.28 2358.53 2783.12 2325.48 2777.96 2285.35C2767.68 2205.33 2749.34 2096.02 2716.98 1979.84C2666.38 1798.19 2575.51 1577.84 2408.7 1439.79C2412.92 1440.87 2417.19 1442.03 2421.51 1443.26C2591.34 1491.5 2853.21 1653.77 3158.33 2146.73L3318.56 2047.2C2999.08 1531.04 2703.96 1327.17 2472.94 1261.55C2443.16 1253.09 2414.71 1247.01 2387.7 1242.87C2388.71 1256.36 2389.22 1269.99 2389.22 1283.74C2389.22 1581.77 2148.04 1823.37 1850.54 1823.37C1553.04 1823.37 1311.86 1581.77 1311.86 1283.74C1311.86 1008.11 1518.14 780.74 1784.49 748.119L1787.18 747.797C1787.18 747.797 1829.1 744.103 1850.54 744.103C2131.64 744.103 2362.45 959.797 2387.05 1234.98C2394.94 1235.45 2402.98 1236.04 2411.17 1236.76C2632.47 1256.3 2977.91 1374.86 3433.73 1801.45L3562.44 1663.43C3180.97 1306.43 2859.82 1142.96 2606.44 1079.27C2834.69 1113.81 3160.09 1204.52 3617.76 1404.05L3693 1230.87C3000.85 929.105 2581.64 860.561 2328.65 874.053L2328.07 874.084C2533.38 841.155 2871.73 849.009 3422.82 977.726L3465.63 793.789C2730.12 621.997 2327.66 651.2 2103.65 738.487C2077.39 748.722 2053.54 759.771 2031.91 771.396C2150.25 693.585 2397.65 604.417 2905.18 588.916L2899.44 400.132C2430.29 414.461 2149.23 490.052 1980.16 582.512C2009.89 562.15 2040.69 542.459 2071.93 523.57C2174.85 461.341 2278.6 410.208 2357.01 374.523C2396.09 356.733 2428.61 342.907 2451.21 333.581C2462.51 328.92 2471.32 325.39 2477.21 323.058C2480.16 321.892 2482.38 321.026 2483.81 320.469L2485.38 319.865L2485.71 319.738L2485.75 319.721C2485.75 319.721 2485.73 319.73 2452.24 231.454C2418.76 143.177 2418.74 143.185 2418.71 143.194L2418.65 143.218L2418.46 143.288L2417.86 143.52L2415.74 144.339C2413.92 145.044 2411.32 146.062 2407.97 147.386C2401.27 150.034 2391.61 153.908 2379.42 158.941C2355.03 169.001 2320.43 183.721 2279.02 202.567C2196.44 240.154 2085.68 294.653 1974.51 361.869C1864.09 428.63 1749.19 510.357 1661.24 603.393C1661 603.647 1660.76 603.9 1660.52 604.155L1660.22 604.473C1659.47 605.271 1658.72 606.07 1657.97 606.87C1686.42 553.553 1719.14 501.073 1753.46 451.172C1815.89 360.404 1881.68 280.942 1932.07 224.022C1957.19 195.643 1978.3 173.063 1993.01 157.699C2000.37 150.022 2006.11 144.159 2009.94 140.288C2011.85 138.353 2013.29 136.916 2014.21 136.001L2015.19 135.023L2015.38 134.833L2015.4 134.822C2015.4 134.822 2015.37 134.844 1949.38 67.405Z" fill="#15181F"/>
<ellipse cx="1841.5" cy="1287" rx="237.5" ry="237" fill="black"/>
</svg>
