<svg width="271" height="195" viewBox="0 0 271 195" fill="none" xmlns="http://www.w3.org/2000/svg">
<path d="M143.05 4.97313C138.207 -0.00251961 138.206 -0.00131631 138.205 4.48949e-05L138.201 0.00356467L138.191 0.0134591L138.16 0.0446002L138.052 0.151766C137.961 0.242949 137.832 0.373377 137.666 0.541399C137.336 0.877388 136.862 1.36404 136.268 1.98812C135.079 3.23566 133.406 5.03602 131.427 7.28315C127.481 11.7655 122.272 18.0834 117.28 25.3811C112.31 32.646 107.412 41.0886 104.243 49.8106C103.595 51.5941 103.009 53.4164 102.509 55.2659C103.71 43.3599 107.17 27.6706 114.915 7.48442L102.009 2.46183C89.8698 34.1049 87.3565 56.3081 88.3397 71.2477C84.8974 64.6455 82.3477 57.1039 80.4837 49.6804C78.4076 41.4126 77.2424 33.538 76.5984 27.711C76.2774 24.806 76.0882 22.431 75.9798 20.7966C75.9256 19.9799 75.8917 19.3495 75.8716 18.9319C75.8616 18.7232 75.855 18.5678 75.8511 18.469L75.8471 18.3637L75.8464 18.3437C75.8464 18.3437 75.8464 18.3459 68.9324 18.5696C62.0183 18.7933 62.0183 18.7952 62.0184 18.7974L62.0186 18.8029L62.0191 18.8181L62.0207 18.8655L62.0269 19.0267C62.0323 19.1633 62.0406 19.3576 62.0525 19.6064C62.0765 20.1037 62.1151 20.8191 62.1753 21.7255C62.2955 23.5374 62.5017 26.1185 62.8481 29.2525C63.5388 35.5034 64.796 44.0384 67.0707 53.0971C69.3361 62.1191 72.6719 71.9105 77.6288 80.5367C79.9524 84.5804 82.6887 88.4645 85.912 91.9106C84.887 91.2568 83.8621 90.5666 82.838 89.8421C75.0209 84.3119 67.6739 77.0828 61.2922 69.7583C54.9308 62.457 49.6642 55.2183 45.9835 49.7931C44.1471 47.0864 42.7153 44.8455 41.7493 43.2927C41.2665 42.5167 40.9007 41.9136 40.6595 41.5113C40.5389 41.3102 40.4496 41.1594 40.3924 41.0623L40.3308 40.9575L40.3184 40.9362L40.3172 40.9341C40.3172 40.9341 40.3183 40.9361 34.3441 44.4487C28.3699 47.9613 28.3708 47.9628 28.3718 47.9646L28.3745 47.9692L28.3823 47.9826L28.4073 48.0255L28.4945 48.1741C28.5691 48.3007 28.6765 48.4819 28.8157 48.7141C29.0941 49.1784 29.4999 49.8472 30.0256 50.6921C31.0764 52.3811 32.6085 54.7779 34.5604 57.655C38.4565 63.3976 44.0641 71.1115 50.8932 78.9495C57.3935 86.4102 65.125 94.1278 73.6646 100.367C68.0898 97.6743 62.4558 94.3806 56.9942 90.8019C47.0237 84.2689 37.9792 77.0212 31.4023 71.3773C28.1224 68.5627 25.4761 66.1642 23.6578 64.4771C22.749 63.634 22.0482 62.9695 21.5797 62.521C21.3455 62.2967 21.1694 62.1265 21.0546 62.0149L20.9286 61.8922L20.9008 61.865L20.8958 61.8601C20.8958 61.8601 20.8968 61.8611 16.0618 66.844C11.2267 71.8269 11.2279 71.8281 11.2294 71.8296L11.2337 71.8338L11.2469 71.8467L11.2911 71.8901L11.4509 72.0458C11.5887 72.1796 11.7885 72.3727 12.0472 72.6205C12.5647 73.1159 13.3185 73.8303 14.2839 74.7261C16.214 76.5169 18.9948 79.0368 22.4297 81.9844C29.2823 87.8648 38.8178 95.5162 49.4496 102.483C56.7217 107.248 64.6762 111.805 72.7615 115.239C66.0902 113.856 59.127 111.832 52.2533 109.462C40.1769 105.298 28.7815 100.209 20.374 96.1407C16.1799 94.1111 12.7517 92.3462 10.3808 91.0935C9.19583 90.4675 8.27622 89.97 7.6585 89.6323C7.34967 89.4635 7.11642 89.3346 6.9633 89.2496L6.79433 89.1555L6.75603 89.134L6.74861 89.1298C6.74861 89.1298 6.74908 89.1301 3.37297 95.2114C-0.00313997 101.293 -0.00169512 101.294 8.09377e-05 101.295L0.00529954 101.297L0.0217041 101.307L0.0781975 101.338L0.284429 101.453C0.462781 101.552 0.722153 101.696 1.05795 101.879C1.72947 102.246 2.70708 102.775 3.95398 103.434C6.44689 104.751 10.0213 106.591 14.3822 108.701C23.0848 112.912 35.0093 118.245 47.7721 122.646C52.671 124.335 57.7547 125.909 62.8748 127.231C51.0466 125.527 39.7885 122.727 31.2197 120.248C26.5641 118.902 22.7355 117.66 20.0825 116.759C18.7566 116.308 17.7262 115.944 17.035 115.695C16.6894 115.57 16.4287 115.475 16.2585 115.412L16.0717 115.342L16.0304 115.327L16.0231 115.324C16.0231 115.324 16.0247 115.325 13.5912 121.847C11.1577 128.369 11.1596 128.37 11.1618 128.371L11.1683 128.373L11.1879 128.38L11.2541 128.405L11.4919 128.494C11.6967 128.569 11.9932 128.678 12.3757 128.816C13.1408 129.091 14.2509 129.484 15.662 129.963C18.4829 130.921 22.5138 132.228 27.4008 133.642C37.146 136.461 50.428 139.742 64.3712 141.491C76.5069 143.014 89.5751 143.435 101.391 141.119C97.4192 142.352 93.1453 143.387 88.7568 144.246C79.3071 146.094 69.8279 147.029 62.6651 147.499C59.0961 147.733 56.1305 147.849 54.0673 147.907C53.0363 147.936 52.2322 147.951 51.6926 147.958C51.4229 147.961 51.2194 147.963 51.0868 147.964L50.9417 147.965L50.9102 147.965H50.9049C50.9049 147.965 50.9067 147.965 50.9067 154.932C50.9067 161.9 50.9083 161.9 50.9102 161.9H50.9156L50.9316 161.9L50.9847 161.9L51.1742 161.899C51.3368 161.898 51.5714 161.896 51.8732 161.892C52.4767 161.884 53.3496 161.868 54.4539 161.837C56.6613 161.775 59.7996 161.651 63.5639 161.404C71.0678 160.912 81.1729 159.924 91.394 157.925C101.51 155.947 112.255 152.883 120.732 147.995C122.037 147.243 123.32 146.427 124.558 145.545C117.121 153.018 104.082 161.145 81.3084 167.897L85.2151 181.264C119.077 171.225 135.768 157.357 143.18 143.749C139.224 153.305 131.137 165.479 115.499 180.2L124.946 190.381C150.256 166.555 159.033 147.022 160.274 132.084C161.599 144.15 160.21 162.75 150.831 190.511L163.928 195C175.977 159.336 176.09 136.207 172.434 121.457C178.703 128.834 183.093 139.14 186.051 149.818C188.198 157.565 189.433 164.938 190.13 170.392C190.478 173.11 190.689 175.331 190.812 176.856C190.873 177.619 190.913 178.206 190.937 178.593C190.943 178.699 190.949 178.79 190.953 178.866L190.961 179.021L190.966 179.117L190.967 179.133C190.967 179.133 190.967 179.13 197.878 178.821C204.789 178.511 204.788 178.509 204.788 178.507L204.788 178.501L204.787 178.486L204.785 178.44L204.777 178.285C204.771 178.154 204.76 177.969 204.746 177.733C204.717 177.261 204.671 176.583 204.602 175.726C204.463 174.012 204.231 171.573 203.852 168.613C203.098 162.709 201.752 154.644 199.377 146.072C195.664 132.67 188.997 116.412 176.756 106.227C177.065 106.307 177.379 106.393 177.695 106.483C190.158 110.042 209.374 122.015 231.765 158.385L243.523 151.042C220.079 112.96 198.422 97.9185 181.47 93.0769C179.284 92.4527 177.196 92.0043 175.214 91.6984C175.288 92.6937 175.326 93.6993 175.326 94.7137C175.326 116.702 157.628 134.528 135.796 134.528C113.965 134.528 96.267 116.702 96.267 94.7137C96.267 74.3778 111.405 57.6029 130.95 55.1961L131.147 55.1723C131.147 55.1723 134.224 54.8998 135.796 54.8998C156.424 54.8998 173.362 70.8136 175.167 91.1169C175.745 91.1512 176.336 91.1946 176.937 91.248C193.176 92.6892 218.526 101.437 251.974 132.91L261.419 122.728C233.426 96.388 209.859 84.3274 191.266 79.6286C208.015 82.1769 231.894 88.869 265.479 103.591L271 90.8135C220.209 68.5492 189.446 63.492 170.881 64.4874L170.839 64.4897C185.905 62.0603 210.733 62.6397 251.174 72.1365L254.315 58.5656C200.342 45.8908 170.809 48.0454 154.37 54.4854C152.443 55.2406 150.693 56.0558 149.106 56.9134C157.79 51.1726 175.944 44.5938 213.188 43.4501L212.767 29.5217C178.34 30.5789 157.715 36.1559 145.308 42.9776C147.49 41.4753 149.75 40.0225 152.043 38.6289C159.595 34.0377 167.209 30.265 172.962 27.6322C175.83 26.3197 178.216 25.2996 179.875 24.6115C180.704 24.2677 181.35 24.0072 181.783 23.8352C181.999 23.7491 182.162 23.6853 182.268 23.6441L182.382 23.5996L182.406 23.5902L182.41 23.5889C182.41 23.5889 182.408 23.5896 179.951 17.0766C177.493 10.5636 177.492 10.5641 177.49 10.5648L177.486 10.5666L177.472 10.5718L177.428 10.5889L177.272 10.6493C177.139 10.7013 176.947 10.7764 176.702 10.8741C176.21 11.0695 175.502 11.3553 174.606 11.7266C172.817 12.4689 170.278 13.5549 167.239 14.9454C161.179 17.7185 153.051 21.7394 144.893 26.6986C136.791 31.6243 128.359 37.6541 121.905 44.5182L121.83 44.5979C121.775 44.6567 121.72 44.7157 121.665 44.7748C123.753 40.841 126.154 36.969 128.673 33.2874C133.254 26.5905 138.082 20.7279 141.779 16.5283C143.622 14.4345 145.172 12.7685 146.252 11.635C146.791 11.0686 147.212 10.636 147.493 10.3504C147.634 10.2076 147.739 10.1017 147.807 10.0342L147.879 9.96198L147.893 9.94793L147.894 9.94716C147.894 9.94716 147.892 9.94877 143.05 4.97313Z" fill="white"/>
</svg>
